Seth and Jonah are twins with a dangerous ability. Telekinesis. Things start to spiral out of their control as their classmates end up dying in twisted and bizarre ways... 
 
http://www.imdb.com/title/tt1601475/

Subs: Dutch, English.


Beoordeeld op hun bevoorrechte levensstijl, zou niemand geloven dat Seth en Jonah een moordende tweeling is die een kwade familieband delen. Verdoemd vanaf het moment van hun geboorte bezitten de broers een groot talent voor telekinese - een kracht die ze gebruiken op de meest afschuwelijk denkbare manieren. Wanneer medestudenten het slachtoffer worden van moord verdenkt de lokale politie de tweeling van betrokkenheid. Wat begon als een jaloerse woedeuitbarsting escaleert in een bovennatuurlijke confrontatie. Broer tegen broer, kwaad tegen kwaad...
 
http://www.moviemeter.nl/film/65846

Subs: Engels, Nederlands.

General
Complete name                    : Seconds Apart-AC3-XviD-DVDRip 2011 TBS\Seconds Apart-AC3-XviD-DVDRip 2011.avi
Format                           : AVI
Format/Info                      : Audio Video Interleave
File size                        : 1.40 GiB
Duration                         : 1h 28mn
Overall bit rate                 : 2 261 Kbps
Writing application              : VirtualDubMod 1.5.4.1 (build 2178/release)
Writing library                  : VirtualDubMod build 2178/release
Source                           : Seconds Apart (2011) COMPLETE R1 NTSC DVDR IGUANA

Video
ID                               : 0
Format                           : MPEG-4 Visual
Format profile                   : Simple@L3
Format settings, BVOP            : No
Format settings, QPel            : No
Format settings, GMC             : No warppoints
Format settings, Matrix          : Default (H.263)
Codec ID                         : XVID
Codec ID/Hint                    : XviD
Duration                         : 1h 28mn
Bit rate                         : 1 804 Kbps
Width                            : 720 pixels
Height                           : 400 pixels
Display aspect ratio             : 16:9
Frame rate                       : 23.976 fps
Color space                      : YUV
Chroma subsampling               : 4:2:0
Bit depth                        : 8 bits
Scan type                        : Progressive
Compression mode                 : Lossy
Bits/(Pixel*Frame)               : 0.261
Stream size                      : 1.12 GiB (80%)
Writing library                  : XviD 1.1.2 (UTC 2006-11-01)

Audio
ID                               : 1
Format                           : AC-3
Format/Info                      : Audio Coding 3
Mode extension                   : CM (complete main)
Codec ID                         : 2000
Duration                         : 1h 28mn
Bit rate mode                    : Constant
Bit rate                         : 448 Kbps
Channel(s)                       : 6 channels
Channel positions                : Front: L C R, Side: L R, LFE
Sampling rate                    : 48.0 KHz
Bit depth                        : 16 bits
Compression mode                 : Lossy
Stream size                      : 285 MiB (20%)
Alignment                        : Split accross interleaves
Interleave, duration             : 42 ms (1.00 video frame)
Interleave, preload duration     : 500 ms

Enjoy...

TBS.